<?xml version="1.0" encoding="utf-8"?>
<!-- Generator: Adobe Illustrator 22.0.1, SVG Export Plug-In . SVG Version: 6.00 Build 0)  -->
<svg version="1.1" id="iconmonstr" xmlns="http://www.w3.org/2000/svg" xmlns:xlink="http://www.w3.org/1999/xlink" x="0px" y="0px"
	 viewBox="0 0 24 24" style="enable-background:new 0 0 24 24;" xml:space="preserve">
<path id="globe-5" d="M13.208,7.955c-0.037-0.07,0.361-0.107,0.432-0.107C13.719,7.857,13.434,8.324,13.208,7.955z M10.935,4.709
	c-0.043,0.065,0.099-0.045,0.115-0.033c0.068,0.058-0.076,0.1-0.054,0.143c0.091,0.164,0.023,0.262,0.008,0.351
	c-0.014,0.09-0.11,0.051-0.158,0.098c-0.056,0.07,0.272,0.079,0.276,0.09c0.011,0.035-0.396,0.094-0.321,0.181
	c0.101,0.143,0.871-0.206,0.748-0.186c0.237-0.12,0.031-0.132-0.102-0.201c-0.045-0.227-0.084-0.578-0.225-0.718
	c-0.026-0.052,0.117-0.074,0.093-0.107C11.097,4.01,10.935,4.709,10.935,4.709z M23.688,12c0,6.163-5.233,11.159-11.688,11.159
	C5.545,23.159,0.312,18.163,0.312,12C0.312,5.837,5.545,0.841,12,0.841C18.454,0.841,23.688,5.837,23.688,12z M15.899,6.325
	c-0.006-0.155-0.201-0.3-0.403-0.033c-0.142,0.184-0.118,0.464-0.194,0.588c-0.11,0.185,0.599,0.358,0.599,0.184
	c0.027-0.293,0.774-0.067,0.919-0.027c0.262,0.073,0.679-0.238,0.223-0.402c-0.377-0.136-0.574-0.283-0.608-0.551
	c0,0,0.199-0.186,0.113-0.175C16.317,5.936,15.899,6.738,15.899,6.325z M22.55,12c0-1.094-0.187-2.198-0.378-2.78
	c-0.061-0.184-0.2-0.33-0.38-0.399c-0.27-0.105-1.412,0.63-1.585,0.268c-0.113-0.242-0.343,0.155-0.605,0.008
	c-0.127-0.07-0.48-0.544-0.64-0.486c-0.326,0.118,0.5,1.018,0.726,1.137c0.213-0.161,0.9-0.491,1.048-0.04
	c0.283,0.849-0.779,1.78-1.322,2.271c-0.811,0.734-0.659-0.475-1.212-0.9c-0.291-0.223-0.288-0.697-0.581-0.861
	c-0.131-0.074-0.732-0.766-0.726-0.859c0.013,0.062,0.008,0.12-0.018,0.175c-0.099,0.075-0.311-0.283-0.333-0.339
	c0,0.312,0.508,0.808,0.675,1.057c0.286,0.428,0.44,1.051,0.79,1.401c0.188,0.188,0.907,0.966,1.094,0.949
	c0.204-0.018,0.848-0.484,0.963-0.457c0.68,0.161-1.601,3.386-1.818,3.785c-0.178,0.335,0.145,1.163,0.12,1.559
	c-0.031,0.457-0.391,0.606-0.733,0.854c-0.365,0.267-0.28,0.787-0.587,0.977c-0.546,0.336-0.939,1.429-1.715,1.424
	c-0.228-0.001-1.204,0.381-1.332,0.007c-0.099-0.27-0.232-0.476-0.373-0.743c-0.137-0.262-0.015-0.533-0.183-0.765
	c-0.116-0.161-0.501-0.525-0.536-0.715c-0.002-0.164,0.124-0.661,0.296-0.748c0.242-0.124,0.046-0.484,0.016-0.693
	c-0.051-0.373-0.282-0.682-0.56-0.899c-0.411-0.316-0.198-0.567-0.102-1.018c0-0.216-0.131-0.498-0.421-0.414
	c-0.596,0.173-0.415-0.465-0.849-0.436c-0.313,0.023-0.568,0.221-0.859,0.308c-0.365,0.109-0.74-0.087-1.101-0.132
	c-1.487-0.188-1.972-1.887-1.584-3.113c0.039-0.201-0.121-0.573-0.051-0.728c0.167-0.371,0.508-0.789,0.805-1.071
	C8.67,9.426,8.884,9.466,9.08,9.343c0.303-0.191,0.307-0.584,0.605-0.825c0.423-0.344,1-0.336,1.551-0.41
	c0.294-0.039,1.411-0.281,1.588-0.063c0,0.04,0.202,0.639-0.02,0.605c0.457,0.025,1.109,0.791,1.544,0.612
	c0.223-0.093,0.141-0.778,0.599-0.447c0.276,0.199,1.517,0.288,1.775,0.073c0.159-0.131,0.248-0.982,0.055-1.078
	c0.123,0.122-0.646,0.131-0.717,0.103c-0.127-0.046-0.246,0.121-0.449,0.027c0.123,0.058-0.682-0.375-0.23-0.705
	c-0.189,0.138-0.365-0.039-0.569,0.114c-0.14,0.115,0.066,0.19-0.135,0.29c-0.319,0.162-0.56-0.555-0.68-0.636
	c-0.123-0.081-1.071-0.746-0.813-0.312c0.182,0.305,0.938,0.761,0.834,0.829c-0.041,0.027-0.219-0.302-0.219-0.062
	c0.056-0.142,0.021,0.612-0.11,0.366c-0.058-0.094,0.095-0.146,0.006-0.283c0-0.09-0.24-0.177-0.288-0.238
	c-0.132-0.164-0.483-0.525-0.673-0.612c-0.053-0.025-0.807,0.092-0.871,0.117c-0.074,0.103-0.137,0.213-0.189,0.328
	C11.516,7.195,11.37,7.27,11.23,7.363c-0.108,0.097-0.083,0.301-0.166,0.373c-0.072,0.064-0.808,0.307-0.812,0.317
	c0.031-0.079-0.515-0.181-0.479-0.339c0.04-0.174,0.225-0.718,0.177-0.917c-0.05-0.208,1.135,0.3,1.211-0.249
	c0.031-0.237,0.048-0.515-0.331-0.555c0.072,0.008,0.735-0.26,0.844-0.381c0.155-0.177,0.509-0.467,0.764-0.467
	c0.3,0,0.235-0.436,0.373-0.65c0.138,0.056-0.074,0.397,0.092,0.535c-0.01-0.108,0.471,0.06,0.517,0.035
	c0.11-0.059,0.723-0.025,0.628-0.313c-0.105-0.293,0.054-0.206,0.191-0.267c-0.024,0.009,0.359-0.654,0.425-0.436
	c-0.045-0.224-0.445,0.078-0.584,0.067c-0.322-0.026-0.186-0.549-0.064-0.703c0.094-0.122-0.257-0.27-0.261-0.038
	c-0.006,0.348-0.329,0.662-0.255,1.125c0.115,0.696-0.777-0.168-0.854-0.121c-0.296,0.18-0.538-0.226-0.385-0.469
	c0.157-0.249,0.533-0.236,0.689-0.502C13.062,3.219,13.19,3,13.359,2.858c0.565-0.475,0.721-0.095,1.285-0.043
	c0.551,0.051,0.186,0.131,0.11,0.343c-0.073,0.201,0.302,0.272,0.432,0.104c0.074-0.097,0.242-0.341,0.315-0.522
	c0.094-0.234,0.952-0.208,0.353-0.566c-0.395-0.235-2.117-0.71-3.271-0.71c-0.25,0-0.424,0.278-0.614,0.435
	c-0.377,0.312-1.339,0.923-1.876,0.738C9.546,2.447,8.371,3.333,8.184,3.34c-0.07,0.003,0.002-0.671,0.377-0.72
	C8.398,2.643,9.878,1.873,9.837,1.712C9.789,1.522,6.881,2.58,7.01,2.793C7.072,2.89,7.326,2.89,6.994,3.103
	C6.803,3.218,6.6,3.949,6.421,3.949C5.888,4.183,5.854,3.49,5.261,4.382C5.143,4.554,4.51,4.568,4.316,4.762
	c-1.402,1.49-2.373,3.378-2.725,5.475c-0.013,0.084,0.353,0.238,0.4,0.296c0.119,0.141,0.119,0.752,0.176,0.952
	c0.145,0.504,0.507,0.786,0.782,1.245c0.163,0.273,0.433,0.966,0.348,1.252c0.115-0.188,1.131,0.862,1.317,1.08
	c0.437,0.515,0.775,1.138,0.064,1.647c-0.229,0.165,0.349,1.193,0.051,1.445c-0.039,0.033-0.285,0.039-0.382,0.098
	c-0.377,0.231-0.206,0.799,0.023,1.038c1.921,2.009,4.627,3.261,7.628,3.261C17.825,22.554,22.55,17.828,22.55,12z M10.394,5.283
	c0.132-0.058,0.31-0.056,0.328-0.232c0.016-0.157,0.046-0.048,0.085-0.105C10.843,4.89,10.735,4.8,10.69,4.791
	c-0.068-0.014-0.115,0.073-0.158,0.109c-0.023,0.019-0.051,0-0.076,0.02c-0.024,0.019-0.053,0.067-0.072,0.092
	c-0.022,0.027,0.001,0.029,0.008,0.051C10.406,5.1,10.32,5.155,10.3,5.175C10.211,5.265,10.303,5.323,10.394,5.283
	C10.434,5.266,10.35,5.302,10.394,5.283z"/>
</svg>
